<?xml version="1.0" encoding="UTF-8"?>
<svg version="1.1" xmlns="http://www.w3.org/2000/svg" width="625" height="290">
<path d="M0,0 L10,0 L10,1 L20,1 L20,2 L25,2 L25,3 L29,3 L29,4 L33,4 L33,5 L36,5 L36,6 L39,6 L39,7 L41,7 L41,8 L43,8 L43,9 L45,9 L45,10 L47,10 L47,11 L49,11 L49,12 L51,12 L51,13 L53,13 L53,14 L54,14 L54,15 L56,15 L56,16 L57,16 L57,17 L59,17 L59,18 L60,18 L60,19 L62,19 L62,20 L63,20 L63,21 L64,21 L64,22 L65,22 L65,23 L66,23 L66,24 L67,24 L67,25 L69,25 L69,26 L70,26 L70,27 L71,27 L71,28 L72,28 L72,29 L73,29 L73,31 L74,31 L74,32 L75,32 L75,33 L76,33 L76,34 L77,34 L77,35 L78,35 L78,37 L79,37 L79,38 L80,38 L80,39 L81,39 L81,41 L82,41 L82,42 L83,42 L83,44 L84,44 L84,46 L85,46 L85,47 L86,47 L86,49 L87,49 L87,51 L88,51 L88,53 L89,53 L89,55 L90,55 L90,58 L91,58 L91,60 L92,60 L92,63 L93,63 L93,66 L94,66 L94,70 L95,70 L95,75 L96,75 L96,81 L97,81 L97,109 L94,109 L94,110 L92,110 L92,111 L90,111 L90,112 L87,112 L87,113 L85,113 L85,114 L83,114 L83,115 L81,115 L81,116 L79,116 L79,117 L76,117 L76,118 L74,118 L74,119 L72,119 L72,120 L70,120 L70,121 L68,121 L68,122 L66,122 L66,123 L64,123 L64,124 L63,124 L63,125 L61,125 L61,126 L59,126 L59,127 L57,127 L57,128 L55,128 L55,129 L53,129 L53,130 L52,130 L52,131 L50,131 L50,132 L48,132 L48,133 L47,133 L47,134 L45,134 L45,135 L43,135 L43,136 L42,136 L42,137 L40,137 L40,138 L38,138 L38,139 L37,139 L37,140 L35,140 L35,141 L34,141 L34,142 L32,142 L32,143 L31,143 L31,144 L29,144 L29,145 L28,145 L28,146 L26,146 L26,147 L25,147 L25,148 L23,148 L23,149 L22,149 L22,150 L21,150 L21,151 L19,151 L19,152 L18,152 L18,153 L17,153 L17,154 L15,154 L15,155 L14,155 L14,156 L13,156 L13,157 L11,157 L11,158 L10,158 L10,159 L9,159 L9,160 L7,160 L7,161 L6,161 L6,162 L5,162 L5,163 L4,163 L4,164 L2,164 L2,165 L1,165 L1,166 L0,166 L0,167 L-1,167 L-1,168 L-2,168 L-2,169 L-3,169 L-3,170 L-5,170 L-5,171 L-6,171 L-6,172 L-7,172 L-7,173 L-8,173 L-8,174 L-11,174 L-11,173 L-12,173 L-12,172 L-13,172 L-13,171 L-14,171 L-14,170 L-15,170 L-15,169 L-16,169 L-16,168 L-17,168 L-17,167 L-18,167 L-18,166 L-20,166 L-20,165 L-21,165 L-21,164 L-22,164 L-22,163 L-23,163 L-23,162 L-24,162 L-24,161 L-26,161 L-26,160 L-27,160 L-27,159 L-28,159 L-28,158 L-29,158 L-29,157 L-30,157 L-30,156 L-32,156 L-32,155 L-33,155 L-33,154 L-34,154 L-34,153 L-35,153 L-35,152 L-37,152 L-37,151 L-38,151 L-38,150 L-39,150 L-39,149 L-40,149 L-40,148 L-42,148 L-42,147 L-43,147 L-43,146 L-44,146 L-44,145 L-46,145 L-46,144 L-47,144 L-47,143 L-48,143 L-48,142 L-50,142 L-50,141 L-51,141 L-51,140 L-52,140 L-52,139 L-54,139 L-54,138 L-55,138 L-55,137 L-57,137 L-57,136 L-58,136 L-58,135 L-59,135 L-59,134 L-61,134 L-61,133 L-62,133 L-62,132 L-64,132 L-64,131 L-65,131 L-65,130 L-67,130 L-67,129 L-68,129 L-68,128 L-70,128 L-70,127 L-71,127 L-71,126 L-73,126 L-73,125 L-74,125 L-74,124 L-76,124 L-76,123 L-77,123 L-77,122 L-79,122 L-79,121 L-80,121 L-80,120 L-82,120 L-82,119 L-84,119 L-84,118 L-85,118 L-85,117 L-87,117 L-87,91 L-86,91 L-86,78 L-85,78 L-85,73 L-84,73 L-84,69 L-83,69 L-83,65 L-82,65 L-82,62 L-81,62 L-81,59 L-80,59 L-80,57 L-79,57 L-79,54 L-78,54 L-78,52 L-77,52 L-77,50 L-76,50 L-76,48 L-75,48 L-75,47 L-74,47 L-74,45 L-73,45 L-73,43 L-72,43 L-72,42 L-71,42 L-71,40 L-70,40 L-70,39 L-69,39 L-69,37 L-68,37 L-68,36 L-67,36 L-67,35 L-66,35 L-66,34 L-65,34 L-65,32 L-64,32 L-64,31 L-63,31 L-63,30 L-62,30 L-62,29 L-61,29 L-61,28 L-60,28 L-60,27 L-59,27 L-59,26 L-58,26 L-58,25 L-57,25 L-57,24 L-56,24 L-56,23 L-55,23 L-55,22 L-53,22 L-53,21 L-52,21 L-52,20 L-51,20 L-51,19 L-50,19 L-50,18 L-48,18 L-48,17 L-47,17 L-47,16 L-45,16 L-45,15 L-44,15 L-44,14 L-42,14 L-42,13 L-40,13 L-40,12 L-39,12 L-39,11 L-37,11 L-37,10 L-35,10 L-35,9 L-33,9 L-33,8 L-30,8 L-30,7 L-28,7 L-28,6 L-25,6 L-25,5 L-22,5 L-22,4 L-19,4 L-19,3 L-15,3 L-15,2 L-9,2 L-9,1 L0,1 Z " fill="#E7800F" transform="translate(87,0)"/>
<path d="M0,0 L41,0 L41,1 L45,1 L45,2 L47,2 L47,3 L49,3 L49,4 L51,4 L51,5 L52,5 L52,6 L54,6 L54,7 L55,7 L55,8 L56,8 L56,10 L57,10 L57,11 L58,11 L58,13 L59,13 L59,15 L60,15 L60,19 L61,19 L61,29 L60,29 L60,33 L59,33 L59,35 L58,35 L58,37 L57,37 L57,38 L56,38 L56,40 L55,40 L55,41 L54,41 L54,42 L52,42 L52,43 L51,43 L51,44 L50,44 L50,46 L51,46 L51,47 L52,47 L52,49 L53,49 L53,50 L54,50 L54,52 L55,52 L55,53 L56,53 L56,55 L57,55 L57,56 L58,56 L58,58 L59,58 L59,59 L60,59 L60,61 L61,61 L61,62 L62,62 L62,60 L63,60 L63,58 L64,58 L64,55 L65,55 L65,53 L66,53 L66,51 L67,51 L67,48 L68,48 L68,46 L69,46 L69,44 L70,44 L70,42 L71,42 L71,39 L72,39 L72,37 L73,37 L73,35 L74,35 L74,32 L75,32 L75,30 L76,30 L76,28 L77,28 L77,26 L78,26 L78,23 L79,23 L79,21 L80,21 L80,19 L81,19 L81,16 L82,16 L82,14 L83,14 L83,12 L84,12 L84,10 L85,10 L85,7 L86,7 L86,5 L87,5 L87,3 L88,3 L88,0 L111,0 L111,1 L112,1 L112,3 L113,3 L113,6 L114,6 L114,8 L115,8 L115,10 L116,10 L116,13 L117,13 L117,15 L118,15 L118,17 L119,17 L119,19 L120,19 L120,22 L121,22 L121,24 L122,24 L122,26 L123,26 L123,29 L124,29 L124,31 L125,31 L125,33 L126,33 L126,35 L127,35 L127,38 L128,38 L128,40 L129,40 L129,42 L130,42 L130,45 L131,45 L131,47 L132,47 L132,49 L133,49 L133,51 L134,51 L134,54 L135,54 L135,56 L136,56 L136,58 L137,58 L137,61 L138,61 L138,63 L139,63 L139,64 L115,64 L115,62 L114,62 L114,59 L113,59 L113,56 L112,56 L112,54 L111,54 L111,53 L88,53 L88,55 L87,55 L87,57 L86,57 L86,60 L85,60 L85,62 L84,62 L84,64 L38,64 L38,63 L37,63 L37,61 L36,61 L36,60 L35,60 L35,58 L34,58 L34,57 L33,57 L33,55 L32,55 L32,54 L31,54 L31,53 L30,53 L30,51 L29,51 L29,50 L28,50 L28,48 L23,48 L23,64 L0,64 Z M23,17 L23,31 L34,31 L34,30 L36,30 L36,29 L37,29 L37,27 L38,27 L38,21 L37,21 L37,19 L35,19 L35,18 L33,18 L33,17 Z M99,23 L99,26 L98,26 L98,29 L97,29 L97,31 L96,31 L96,34 L95,34 L95,36 L94,36 L94,37 L105,37 L105,35 L104,35 L104,33 L103,33 L103,30 L102,30 L102,28 L101,28 L101,25 L100,25 L100,23 Z " fill="#616160" transform="translate(368,192)"/>
<path d="M0,0 L2,0 L2,1 L3,1 L3,2 L5,2 L5,3 L6,3 L6,4 L8,4 L8,5 L9,5 L9,6 L11,6 L11,7 L12,7 L12,8 L14,8 L14,9 L15,9 L15,10 L17,10 L17,11 L18,11 L18,12 L20,12 L20,13 L21,13 L21,14 L23,14 L23,15 L24,15 L24,16 L26,16 L26,17 L27,17 L27,18 L28,18 L28,19 L30,19 L30,20 L31,20 L31,21 L33,21 L33,22 L34,22 L34,23 L35,23 L35,24 L37,24 L37,25 L38,25 L38,26 L39,26 L39,27 L41,27 L41,28 L42,28 L42,29 L43,29 L43,30 L45,30 L45,31 L46,31 L46,32 L47,32 L47,33 L48,33 L48,34 L50,34 L50,35 L51,35 L51,36 L52,36 L52,37 L53,37 L53,38 L55,38 L55,39 L56,39 L56,40 L57,40 L57,41 L58,41 L58,42 L59,42 L59,43 L61,43 L61,44 L62,44 L62,45 L63,45 L63,46 L64,46 L64,47 L65,47 L65,48 L66,48 L66,49 L68,49 L68,50 L69,50 L69,51 L70,51 L70,52 L71,52 L71,53 L72,53 L72,54 L73,54 L73,55 L74,55 L74,56 L75,56 L75,57 L77,57 L77,58 L78,58 L78,59 L79,59 L79,60 L80,60 L80,61 L81,61 L81,62 L82,62 L82,63 L83,63 L83,64 L84,64 L84,65 L85,65 L85,66 L86,66 L86,67 L87,67 L87,68 L88,68 L88,69 L89,69 L89,70 L90,70 L90,71 L91,71 L91,72 L92,72 L92,73 L93,73 L93,74 L94,74 L94,75 L95,75 L95,76 L96,76 L96,77 L97,77 L97,78 L98,78 L98,79 L99,79 L99,80 L100,80 L100,81 L101,81 L101,82 L102,82 L102,83 L103,83 L103,84 L104,84 L104,85 L105,85 L105,86 L106,86 L106,87 L107,87 L107,88 L108,88 L108,89 L109,89 L109,91 L110,91 L110,92 L111,92 L111,93 L112,93 L112,94 L113,94 L113,95 L114,95 L114,96 L115,96 L115,97 L116,97 L116,98 L117,98 L117,100 L118,100 L118,101 L119,101 L119,102 L120,102 L120,103 L121,103 L121,104 L122,104 L122,105 L123,105 L123,107 L124,107 L124,108 L125,108 L125,109 L126,109 L126,110 L127,110 L127,111 L128,111 L128,113 L129,113 L129,114 L130,114 L130,115 L131,115 L131,116 L132,116 L132,118 L133,118 L133,119 L134,119 L134,120 L135,120 L135,122 L136,122 L136,123 L137,123 L137,124 L138,124 L138,125 L139,125 L139,127 L140,127 L140,128 L141,128 L141,130 L142,130 L142,131 L143,131 L143,132 L144,132 L144,134 L145,134 L145,135 L146,135 L146,136 L147,136 L147,138 L148,138 L148,139 L149,139 L149,141 L150,141 L150,142 L149,142 L149,143 L147,143 L147,144 L146,144 L146,145 L144,145 L144,146 L143,146 L143,147 L141,147 L141,148 L140,148 L140,149 L138,149 L138,150 L136,150 L136,151 L134,151 L134,152 L132,152 L132,153 L130,153 L130,154 L128,154 L128,155 L126,155 L126,156 L124,156 L124,154 L123,154 L123,153 L122,153 L122,152 L121,152 L121,150 L120,150 L120,149 L119,149 L119,148 L118,148 L118,146 L117,146 L117,145 L116,145 L116,144 L115,144 L115,142 L114,142 L114,141 L113,141 L113,140 L112,140 L112,138 L111,138 L111,137 L110,137 L110,136 L109,136 L109,135 L108,135 L108,133 L107,133 L107,132 L106,132 L106,131 L105,131 L105,130 L104,130 L104,129 L103,129 L103,127 L102,127 L102,126 L101,126 L101,125 L100,125 L100,124 L99,124 L99,123 L98,123 L98,122 L97,122 L97,120 L96,120 L96,119 L95,119 L95,118 L94,118 L94,117 L93,117 L93,116 L92,116 L92,115 L91,115 L91,114 L90,114 L90,113 L89,113 L89,111 L88,111 L88,110 L87,110 L87,109 L86,109 L86,108 L85,108 L85,107 L84,107 L84,106 L83,106 L83,105 L82,105 L82,104 L81,104 L81,103 L80,103 L80,102 L79,102 L79,101 L78,101 L78,100 L77,100 L77,99 L76,99 L76,98 L75,98 L75,97 L74,97 L74,96 L73,96 L73,95 L72,95 L72,94 L71,94 L71,93 L70,93 L70,92 L69,92 L69,91 L68,91 L68,90 L67,90 L67,89 L66,89 L66,88 L65,88 L65,87 L64,87 L64,86 L63,86 L63,85 L62,85 L62,84 L61,84 L61,83 L60,83 L60,82 L59,82 L59,81 L58,81 L58,80 L57,80 L57,79 L56,79 L56,78 L55,78 L55,77 L53,77 L53,76 L52,76 L52,75 L51,75 L51,74 L50,74 L50,73 L49,73 L49,72 L48,72 L48,71 L47,71 L47,70 L46,70 L46,69 L44,69 L44,68 L43,68 L43,67 L42,67 L42,66 L41,66 L41,65 L40,65 L40,64 L38,64 L38,63 L37,63 L37,62 L36,62 L36,61 L35,61 L35,60 L34,60 L34,59 L32,59 L32,58 L31,58 L31,57 L30,57 L30,56 L29,56 L29,55 L27,55 L27,54 L26,54 L26,53 L25,53 L25,52 L24,52 L24,51 L22,51 L22,50 L21,50 L21,49 L20,49 L20,48 L18,48 L18,47 L17,47 L17,46 L16,46 L16,45 L14,45 L14,44 L13,44 L13,43 L12,43 L12,42 L10,42 L10,41 L9,41 L9,40 L8,40 L8,39 L6,39 L6,38 L5,38 L5,37 L3,37 L3,36 L2,36 L2,35 L0,35 Z " fill="#629331" transform="translate(0,128)"/>
<path d="M0,0 L3,0 L3,1 L4,1 L4,2 L5,2 L5,3 L7,3 L7,4 L8,4 L8,5 L10,5 L10,6 L11,6 L11,7 L12,7 L12,8 L14,8 L14,9 L15,9 L15,10 L16,10 L16,11 L18,11 L18,12 L19,12 L19,13 L20,13 L20,14 L21,14 L21,15 L23,15 L23,16 L24,16 L24,17 L25,17 L25,18 L26,18 L26,19 L28,19 L28,20 L29,20 L29,21 L30,21 L30,22 L31,22 L31,23 L33,23 L33,24 L34,24 L34,25 L35,25 L35,26 L36,26 L36,27 L37,27 L37,28 L39,28 L39,29 L40,29 L40,30 L41,30 L41,31 L42,31 L42,32 L43,32 L43,33 L44,33 L44,34 L45,34 L45,35 L47,35 L47,36 L48,36 L48,37 L49,37 L49,38 L50,38 L50,39 L51,39 L51,40 L52,40 L52,41 L53,41 L53,42 L54,42 L54,43 L55,43 L55,44 L56,44 L56,45 L57,45 L57,46 L59,46 L59,47 L60,47 L60,48 L61,48 L61,49 L62,49 L62,50 L63,50 L63,51 L64,51 L64,52 L65,52 L65,53 L66,53 L66,54 L67,54 L67,55 L68,55 L68,56 L69,56 L69,57 L70,57 L70,58 L71,58 L71,59 L72,59 L72,60 L73,60 L73,61 L74,61 L74,62 L75,62 L75,63 L76,63 L76,64 L77,64 L77,66 L78,66 L78,67 L79,67 L79,68 L80,68 L80,69 L81,69 L81,70 L82,70 L82,71 L83,71 L83,72 L84,72 L84,73 L85,73 L85,74 L86,74 L86,75 L87,75 L87,76 L88,76 L88,77 L89,77 L89,79 L90,79 L90,80 L91,80 L91,81 L92,81 L92,82 L93,82 L93,83 L94,83 L94,84 L95,84 L95,86 L96,86 L96,87 L97,87 L97,88 L98,88 L98,89 L99,89 L99,90 L100,90 L100,92 L101,92 L101,93 L102,93 L102,94 L103,94 L103,95 L104,95 L104,96 L105,96 L105,98 L106,98 L106,99 L107,99 L107,100 L108,100 L108,101 L109,101 L109,103 L110,103 L110,104 L111,104 L111,105 L112,105 L112,107 L113,107 L113,108 L114,108 L114,109 L115,109 L115,111 L116,111 L116,112 L117,112 L117,113 L118,113 L118,115 L116,115 L116,116 L112,116 L112,117 L107,117 L107,118 L97,118 L97,119 L90,119 L90,118 L89,118 L89,117 L88,117 L88,115 L87,115 L87,114 L86,114 L86,113 L85,113 L85,112 L84,112 L84,110 L83,110 L83,109 L82,109 L82,108 L81,108 L81,107 L80,107 L80,106 L79,106 L79,104 L78,104 L78,103 L77,103 L77,102 L76,102 L76,101 L75,101 L75,100 L74,100 L74,99 L73,99 L73,97 L72,97 L72,96 L71,96 L71,95 L70,95 L70,94 L69,94 L69,93 L68,93 L68,92 L67,92 L67,91 L66,91 L66,90 L65,90 L65,88 L64,88 L64,87 L63,87 L63,86 L62,86 L62,85 L61,85 L61,84 L60,84 L60,83 L59,83 L59,82 L58,82 L58,81 L57,81 L57,80 L56,80 L56,79 L55,79 L55,78 L54,78 L54,77 L53,77 L53,76 L52,76 L52,75 L51,75 L51,74 L50,74 L50,73 L49,73 L49,72 L48,72 L48,71 L47,71 L47,70 L46,70 L46,69 L45,69 L45,68 L44,68 L44,67 L43,67 L43,66 L42,66 L42,65 L41,65 L41,64 L40,64 L40,63 L39,63 L39,62 L38,62 L38,61 L37,61 L37,60 L36,60 L36,59 L35,59 L35,58 L33,58 L33,57 L32,57 L32,56 L31,56 L31,55 L30,55 L30,54 L29,54 L29,53 L28,53 L28,52 L27,52 L27,51 L26,51 L26,50 L25,50 L25,49 L23,49 L23,48 L22,48 L22,47 L21,47 L21,46 L20,46 L20,45 L19,45 L19,44 L18,44 L18,43 L16,43 L16,42 L15,42 L15,41 L14,41 L14,40 L13,40 L13,39 L12,39 L12,38 L10,38 L10,37 L9,37 L9,36 L8,36 L8,35 L7,35 L7,34 L5,34 L5,33 L4,33 L4,32 L3,32 L3,31 L2,31 L2,30 L1,30 L1,27 L0,27 Z " fill="#629331" transform="translate(0,171)"/>
<path d="M0,0 L1,0 L1,35 L-1,35 L-1,36 L-3,36 L-3,37 L-5,37 L-5,38 L-7,38 L-7,39 L-9,39 L-9,40 L-11,40 L-11,41 L-13,41 L-13,42 L-14,42 L-14,43 L-16,43 L-16,44 L-18,44 L-18,45 L-20,45 L-20,46 L-22,46 L-22,47 L-23,47 L-23,48 L-25,48 L-25,49 L-27,49 L-27,50 L-28,50 L-28,51 L-30,51 L-30,52 L-32,52 L-32,53 L-33,53 L-33,54 L-35,54 L-35,55 L-36,55 L-36,56 L-38,56 L-38,57 L-39,57 L-39,58 L-41,58 L-41,59 L-42,59 L-42,60 L-44,60 L-44,61 L-45,61 L-45,62 L-47,62 L-47,63 L-48,63 L-48,64 L-50,64 L-50,65 L-51,65 L-51,66 L-52,66 L-52,67 L-54,67 L-54,68 L-55,68 L-55,69 L-57,69 L-57,70 L-58,70 L-58,71 L-59,71 L-59,72 L-60,72 L-60,73 L-62,73 L-62,74 L-63,74 L-63,75 L-64,75 L-64,76 L-66,76 L-66,77 L-67,77 L-67,78 L-68,78 L-68,79 L-69,79 L-69,80 L-70,80 L-70,81 L-72,81 L-72,82 L-73,82 L-73,83 L-74,83 L-74,84 L-75,84 L-75,85 L-76,85 L-76,86 L-78,86 L-78,87 L-79,87 L-79,86 L-80,86 L-80,85 L-81,85 L-81,84 L-82,84 L-82,83 L-83,83 L-83,82 L-84,82 L-84,81 L-85,81 L-85,80 L-86,80 L-86,79 L-87,79 L-87,78 L-88,78 L-88,77 L-89,77 L-89,76 L-90,76 L-90,75 L-91,75 L-91,74 L-92,74 L-92,73 L-93,73 L-93,72 L-94,72 L-94,71 L-96,71 L-96,70 L-97,70 L-97,69 L-98,69 L-98,68 L-99,68 L-99,67 L-100,67 L-100,64 L-99,64 L-99,63 L-98,63 L-98,62 L-97,62 L-97,61 L-96,61 L-96,60 L-95,60 L-95,59 L-93,59 L-93,58 L-92,58 L-92,57 L-91,57 L-91,56 L-90,56 L-90,55 L-89,55 L-89,54 L-88,54 L-88,53 L-86,53 L-86,52 L-85,52 L-85,51 L-84,51 L-84,50 L-83,50 L-83,49 L-81,49 L-81,48 L-80,48 L-80,47 L-79,47 L-79,46 L-78,46 L-78,45 L-76,45 L-76,44 L-75,44 L-75,43 L-74,43 L-74,42 L-72,42 L-72,41 L-71,41 L-71,40 L-70,40 L-70,39 L-68,39 L-68,38 L-67,38 L-67,37 L-65,37 L-65,36 L-64,36 L-64,35 L-62,35 L-62,34 L-61,34 L-61,33 L-59,33 L-59,32 L-58,32 L-58,31 L-56,31 L-56,30 L-55,30 L-55,29 L-53,29 L-53,28 L-52,28 L-52,27 L-50,27 L-50,26 L-49,26 L-49,25 L-47,25 L-47,24 L-45,24 L-45,23 L-44,23 L-44,22 L-42,22 L-42,21 L-40,21 L-40,20 L-38,20 L-38,19 L-37,19 L-37,18 L-35,18 L-35,17 L-33,17 L-33,16 L-31,16 L-31,15 L-29,15 L-29,14 L-28,14 L-28,13 L-26,13 L-26,12 L-24,12 L-24,11 L-22,11 L-22,10 L-20,10 L-20,9 L-18,9 L-18,8 L-16,8 L-16,7 L-14,7 L-14,6 L-11,6 L-11,5 L-9,5 L-9,4 L-7,4 L-7,3 L-5,3 L-5,2 L-2,2 L-2,1 L0,1 Z " fill="#1B883F" transform="translate(183,115)"/>
<path d="M0,0 L40,0 L40,1 L44,1 L44,2 L46,2 L46,3 L48,3 L48,4 L50,4 L50,5 L52,5 L52,6 L53,6 L53,7 L54,7 L54,8 L55,8 L55,9 L56,9 L56,11 L57,11 L57,12 L58,12 L58,15 L59,15 L59,18 L60,18 L60,30 L59,30 L59,34 L58,34 L58,36 L57,36 L57,37 L56,37 L56,39 L55,39 L55,40 L54,40 L54,41 L53,41 L53,42 L52,42 L52,43 L50,43 L50,44 L49,44 L49,46 L50,46 L50,47 L51,47 L51,48 L52,48 L52,50 L53,50 L53,51 L54,51 L54,53 L55,53 L55,54 L56,54 L56,56 L57,56 L57,57 L58,57 L58,59 L59,59 L59,60 L60,60 L60,62 L61,62 L61,63 L62,63 L62,64 L37,64 L37,62 L36,62 L36,61 L35,61 L35,59 L34,59 L34,58 L33,58 L33,57 L32,57 L32,55 L31,55 L31,54 L30,54 L30,52 L29,52 L29,51 L28,51 L28,49 L27,49 L27,48 L22,48 L22,64 L0,64 Z M22,17 L22,31 L33,31 L33,30 L35,30 L35,29 L36,29 L36,28 L37,28 L37,25 L38,25 L38,23 L37,23 L37,20 L36,20 L36,19 L35,19 L35,18 L32,18 L32,17 Z " fill="#616160" transform="translate(230,192)"/>
<path d="M0,0 L2,0 L2,45 L1,45 L1,46 L-1,46 L-1,47 L-3,47 L-3,48 L-4,48 L-4,49 L-6,49 L-6,50 L-7,50 L-7,51 L-9,51 L-9,52 L-11,52 L-11,53 L-12,53 L-12,54 L-14,54 L-14,55 L-15,55 L-15,56 L-17,56 L-17,57 L-18,57 L-18,58 L-20,58 L-20,59 L-21,59 L-21,60 L-23,60 L-23,61 L-24,61 L-24,62 L-25,62 L-25,63 L-27,63 L-27,64 L-28,64 L-28,65 L-30,65 L-30,66 L-31,66 L-31,67 L-32,67 L-32,68 L-34,68 L-34,69 L-35,69 L-35,70 L-36,70 L-36,71 L-38,71 L-38,72 L-39,72 L-39,73 L-40,73 L-40,74 L-41,74 L-41,75 L-43,75 L-43,76 L-44,76 L-44,77 L-45,77 L-45,78 L-46,78 L-46,79 L-48,79 L-48,78 L-49,78 L-49,77 L-50,77 L-50,75 L-51,75 L-51,74 L-52,74 L-52,73 L-53,73 L-53,72 L-54,72 L-54,71 L-55,71 L-55,69 L-56,69 L-56,68 L-57,68 L-57,67 L-58,67 L-58,66 L-59,66 L-59,65 L-60,65 L-60,64 L-61,64 L-61,63 L-62,63 L-62,61 L-63,61 L-63,60 L-64,60 L-64,59 L-65,59 L-65,58 L-66,58 L-66,57 L-67,57 L-67,56 L-68,56 L-68,55 L-69,55 L-69,54 L-70,54 L-70,53 L-71,53 L-71,52 L-72,52 L-72,51 L-73,51 L-73,49 L-71,49 L-71,48 L-70,48 L-70,47 L-69,47 L-69,46 L-68,46 L-68,45 L-67,45 L-67,44 L-66,44 L-66,43 L-64,43 L-64,42 L-63,42 L-63,41 L-62,41 L-62,40 L-61,40 L-61,39 L-59,39 L-59,38 L-58,38 L-58,37 L-57,37 L-57,36 L-56,36 L-56,35 L-54,35 L-54,34 L-53,34 L-53,33 L-52,33 L-52,32 L-50,32 L-50,31 L-49,31 L-49,30 L-47,30 L-47,29 L-46,29 L-46,28 L-45,28 L-45,27 L-43,27 L-43,26 L-42,26 L-42,25 L-40,25 L-40,24 L-39,24 L-39,23 L-37,23 L-37,22 L-36,22 L-36,21 L-34,21 L-34,20 L-33,20 L-33,19 L-31,19 L-31,18 L-30,18 L-30,17 L-28,17 L-28,16 L-27,16 L-27,15 L-25,15 L-25,14 L-23,14 L-23,13 L-22,13 L-22,12 L-20,12 L-20,11 L-18,11 L-18,10 L-16,10 L-16,9 L-15,9 L-15,8 L-13,8 L-13,7 L-11,7 L-11,6 L-9,6 L-9,5 L-7,5 L-7,4 L-5,4 L-5,3 L-4,3 L-4,2 L-2,2 L-2,1 L0,1 Z " fill="#1B883F" transform="translate(182,157)"/>
<path d="M0,0 L22,0 L22,39 L23,39 L23,42 L24,42 L24,44 L25,44 L25,45 L26,45 L26,46 L28,46 L28,47 L35,47 L35,46 L37,46 L37,45 L38,45 L38,43 L39,43 L39,41 L40,41 L40,35 L41,35 L41,0 L63,0 L63,38 L62,38 L62,45 L61,45 L61,48 L60,48 L60,51 L59,51 L59,53 L58,53 L58,54 L57,54 L57,55 L56,55 L56,57 L55,57 L55,58 L54,58 L54,59 L52,59 L52,60 L51,60 L51,61 L49,61 L49,62 L47,62 L47,63 L45,63 L45,64 L42,64 L42,65 L35,65 L35,66 L27,66 L27,65 L21,65 L21,64 L17,64 L17,63 L15,63 L15,62 L13,62 L13,61 L11,61 L11,60 L10,60 L10,59 L9,59 L9,58 L8,58 L8,57 L7,57 L7,56 L6,56 L6,55 L5,55 L5,54 L4,54 L4,52 L3,52 L3,50 L2,50 L2,48 L1,48 L1,44 L0,44 Z " fill="#616160" transform="translate(297,192)"/>
<path d="M0,0 L9,0 L9,2 L10,2 L10,4 L11,4 L11,5 L12,5 L12,7 L13,7 L13,9 L14,9 L14,10 L15,10 L15,12 L16,12 L16,14 L17,14 L17,15 L18,15 L18,17 L19,17 L19,19 L20,19 L20,20 L21,20 L21,22 L22,22 L22,24 L23,24 L23,25 L24,25 L24,27 L25,27 L25,29 L26,29 L26,31 L27,31 L27,32 L28,32 L28,34 L29,34 L29,36 L30,36 L30,37 L31,37 L31,39 L32,39 L32,41 L33,41 L33,42 L34,42 L34,44 L35,44 L35,42 L36,42 L36,40 L37,40 L37,39 L38,39 L38,37 L39,37 L39,35 L40,35 L40,33 L41,33 L41,32 L42,32 L42,30 L43,30 L43,28 L44,28 L44,27 L45,27 L45,25 L46,25 L46,23 L47,23 L47,21 L48,21 L48,20 L49,20 L49,18 L50,18 L50,16 L51,16 L51,15 L52,15 L52,13 L53,13 L53,11 L54,11 L54,10 L55,10 L55,8 L56,8 L56,6 L57,6 L57,4 L58,4 L58,3 L59,3 L59,1 L60,1 L60,0 L68,0 L68,5 L69,5 L69,65 L59,65 L59,20 L58,20 L58,22 L57,22 L57,24 L56,24 L56,25 L55,25 L55,27 L54,27 L54,29 L53,29 L53,31 L52,31 L52,32 L51,32 L51,34 L50,34 L50,36 L49,36 L49,37 L48,37 L48,39 L47,39 L47,41 L46,41 L46,42 L45,42 L45,44 L44,44 L44,46 L43,46 L43,47 L42,47 L42,49 L41,49 L41,51 L40,51 L40,52 L39,52 L39,54 L38,54 L38,56 L37,56 L37,57 L31,57 L31,55 L30,55 L30,53 L29,53 L29,52 L28,52 L28,50 L27,50 L27,48 L26,48 L26,47 L25,47 L25,45 L24,45 L24,43 L23,43 L23,42 L22,42 L22,40 L21,40 L21,38 L20,38 L20,37 L19,37 L19,35 L18,35 L18,33 L17,33 L17,32 L16,32 L16,30 L15,30 L15,28 L14,28 L14,27 L13,27 L13,25 L12,25 L12,23 L11,23 L11,22 L10,22 L10,65 L0,65 Z " fill="#616160" transform="translate(234,109)"/>
<path d="M0,0 L12,0 L12,1 L16,1 L16,2 L18,2 L18,3 L20,3 L20,4 L21,4 L21,5 L23,5 L23,6 L24,6 L24,7 L25,7 L25,8 L26,8 L26,9 L27,9 L27,11 L28,11 L28,12 L29,12 L29,14 L30,14 L30,17 L31,17 L31,20 L32,20 L32,29 L31,29 L31,33 L30,33 L30,35 L29,35 L29,37 L28,37 L28,39 L27,39 L27,40 L26,40 L26,42 L25,42 L25,43 L24,43 L24,44 L22,44 L22,45 L21,45 L21,46 L20,46 L20,47 L18,47 L18,48 L15,48 L15,49 L13,49 L13,50 L0,50 L0,49 L-3,49 L-3,48 L-5,48 L-5,47 L-7,47 L-7,46 L-8,46 L-8,45 L-9,45 L-9,44 L-11,44 L-11,43 L-12,43 L-12,42 L-13,42 L-13,40 L-14,40 L-14,39 L-15,39 L-15,37 L-16,37 L-16,35 L-17,35 L-17,33 L-18,33 L-18,29 L-19,29 L-19,21 L-18,21 L-18,17 L-17,17 L-17,14 L-16,14 L-16,13 L-15,13 L-15,11 L-14,11 L-14,9 L-13,9 L-13,8 L-12,8 L-12,7 L-11,7 L-11,6 L-10,6 L-10,5 L-8,5 L-8,4 L-7,4 L-7,3 L-5,3 L-5,2 L-3,2 L-3,1 L0,1 Z " fill="#FEFDFC" transform="translate(37,57)"/>
<path d="M0,0 L23,0 L23,47 L51,47 L51,64 L0,64 Z " fill="#616160" transform="translate(509,192)"/>
<path d="M0,0 L28,0 L28,1 L36,1 L36,2 L39,2 L39,3 L41,3 L41,4 L43,4 L43,5 L44,5 L44,6 L46,6 L46,7 L47,7 L47,8 L48,8 L48,9 L49,9 L49,11 L50,11 L50,13 L51,13 L51,15 L52,15 L52,20 L53,20 L53,27 L52,27 L52,31 L51,31 L51,34 L50,34 L50,35 L49,35 L49,37 L48,37 L48,38 L47,38 L47,39 L46,39 L46,40 L45,40 L45,41 L43,41 L43,42 L41,42 L41,43 L39,43 L39,44 L40,44 L40,45 L41,45 L41,47 L42,47 L42,48 L43,48 L43,49 L44,49 L44,51 L45,51 L45,52 L46,52 L46,54 L47,54 L47,55 L48,55 L48,57 L49,57 L49,58 L50,58 L50,59 L51,59 L51,61 L52,61 L52,62 L53,62 L53,64 L54,64 L54,65 L43,65 L43,64 L42,64 L42,63 L41,63 L41,62 L40,62 L40,60 L39,60 L39,59 L38,59 L38,57 L37,57 L37,56 L36,56 L36,54 L35,54 L35,53 L34,53 L34,52 L33,52 L33,50 L32,50 L32,49 L31,49 L31,47 L30,47 L30,46 L10,46 L10,65 L0,65 Z M10,9 L10,37 L30,37 L30,36 L34,36 L34,35 L36,35 L36,34 L38,34 L38,33 L39,33 L39,32 L40,32 L40,31 L41,31 L41,29 L42,29 L42,25 L43,25 L43,22 L42,22 L42,18 L41,18 L41,16 L40,16 L40,14 L39,14 L39,13 L37,13 L37,12 L36,12 L36,11 L33,11 L33,10 L28,10 L28,9 Z " fill="#616160" transform="translate(300,26)"/>
<path d="M0,0 L2,0 L2,1 L3,1 L3,2 L5,2 L5,3 L6,3 L6,4 L7,4 L7,5 L8,5 L8,6 L10,6 L10,7 L11,7 L11,8 L12,8 L12,9 L13,9 L13,10 L14,10 L14,11 L15,11 L15,12 L17,12 L17,13 L18,13 L18,14 L19,14 L19,15 L20,15 L20,16 L21,16 L21,17 L22,17 L22,18 L23,18 L23,19 L25,19 L25,20 L26,20 L26,21 L27,21 L27,22 L28,22 L28,23 L29,23 L29,24 L30,24 L30,25 L31,25 L31,26 L32,26 L32,27 L33,27 L33,28 L34,28 L34,29 L35,29 L35,30 L36,30 L36,31 L37,31 L37,32 L38,32 L38,33 L40,33 L40,34 L41,34 L41,35 L42,35 L42,36 L43,36 L43,37 L44,37 L44,38 L45,38 L45,39 L46,39 L46,40 L47,40 L47,41 L48,41 L48,42 L49,42 L49,44 L50,44 L50,45 L51,45 L51,46 L52,46 L52,47 L53,47 L53,48 L54,48 L54,49 L55,49 L55,50 L56,50 L56,51 L57,51 L57,52 L58,52 L58,53 L59,53 L59,54 L60,54 L60,55 L61,55 L61,56 L62,56 L62,57 L63,57 L63,59 L64,59 L64,60 L65,60 L65,61 L66,61 L66,62 L67,62 L67,63 L68,63 L68,64 L69,64 L69,65 L70,65 L70,67 L71,67 L71,68 L72,68 L72,69 L73,69 L73,70 L74,70 L74,71 L75,71 L75,72 L76,72 L76,74 L77,74 L77,75 L78,75 L78,76 L79,76 L79,77 L80,77 L80,79 L77,79 L77,78 L71,78 L71,77 L67,77 L67,76 L64,76 L64,75 L61,75 L61,74 L58,74 L58,73 L56,73 L56,72 L53,72 L53,71 L51,71 L51,70 L49,70 L49,69 L47,69 L47,68 L46,68 L46,67 L44,67 L44,66 L42,66 L42,65 L41,65 L41,64 L39,64 L39,63 L38,63 L38,62 L36,62 L36,61 L35,61 L35,60 L34,60 L34,59 L33,59 L33,58 L31,58 L31,57 L30,57 L30,56 L29,56 L29,55 L28,55 L28,54 L27,54 L27,53 L26,53 L26,52 L25,52 L25,51 L24,51 L24,50 L23,50 L23,49 L22,49 L22,48 L21,48 L21,46 L20,46 L20,45 L19,45 L19,44 L18,44 L18,43 L17,43 L17,41 L16,41 L16,40 L15,40 L15,38 L14,38 L14,37 L13,37 L13,35 L12,35 L12,33 L11,33 L11,32 L10,32 L10,30 L9,30 L9,28 L8,28 L8,26 L7,26 L7,23 L6,23 L6,21 L5,21 L5,18 L4,18 L4,15 L3,15 L3,11 L2,11 L2,7 L1,7 L1,2 L0,2 Z " fill="#629331" transform="translate(1,210)"/>
<path d="M0,0 L10,0 L10,1 L11,1 L11,4 L12,4 L12,6 L13,6 L13,8 L14,8 L14,10 L15,10 L15,13 L16,13 L16,15 L17,15 L17,17 L18,17 L18,19 L19,19 L19,21 L20,21 L20,24 L21,24 L21,26 L22,26 L22,28 L23,28 L23,30 L24,30 L24,32 L25,32 L25,35 L26,35 L26,37 L27,37 L27,39 L28,39 L28,41 L29,41 L29,43 L30,43 L30,46 L31,46 L31,48 L32,48 L32,50 L33,50 L33,52 L34,52 L34,54 L35,54 L35,57 L36,57 L36,59 L37,59 L37,61 L38,61 L38,63 L39,63 L39,65 L28,65 L28,63 L27,63 L27,61 L26,61 L26,58 L25,58 L25,56 L24,56 L24,54 L23,54 L23,52 L22,52 L22,49 L-12,49 L-12,51 L-13,51 L-13,53 L-14,53 L-14,55 L-15,55 L-15,58 L-16,58 L-16,60 L-17,60 L-17,62 L-18,62 L-18,64 L-19,64 L-19,65 L-29,65 L-29,63 L-28,63 L-28,60 L-27,60 L-27,58 L-26,58 L-26,56 L-25,56 L-25,54 L-24,54 L-24,52 L-23,52 L-23,49 L-22,49 L-22,47 L-21,47 L-21,45 L-20,45 L-20,43 L-19,43 L-19,41 L-18,41 L-18,38 L-17,38 L-17,36 L-16,36 L-16,34 L-15,34 L-15,32 L-14,32 L-14,30 L-13,30 L-13,27 L-12,27 L-12,25 L-11,25 L-11,23 L-10,23 L-10,21 L-9,21 L-9,19 L-8,19 L-8,16 L-7,16 L-7,14 L-6,14 L-6,12 L-5,12 L-5,10 L-4,10 L-4,7 L-3,7 L-3,5 L-2,5 L-2,3 L-1,3 L-1,1 L0,1 Z M4,12 L4,14 L3,14 L3,17 L2,17 L2,19 L1,19 L1,21 L0,21 L0,23 L-1,23 L-1,26 L-2,26 L-2,28 L-3,28 L-3,30 L-4,30 L-4,33 L-5,33 L-5,35 L-6,35 L-6,37 L-7,37 L-7,39 L-8,39 L-8,40 L17,40 L17,38 L16,38 L16,36 L15,36 L15,33 L14,33 L14,31 L13,31 L13,29 L12,29 L12,27 L11,27 L11,24 L10,24 L10,22 L9,22 L9,20 L8,20 L8,18 L7,18 L7,15 L6,15 L6,13 L5,13 L5,12 Z " fill="#616160" transform="translate(533,109)"/>
<path d="M0,0 L10,0 L10,1 L11,1 L11,4 L12,4 L12,6 L13,6 L13,8 L14,8 L14,10 L15,10 L15,12 L16,12 L16,15 L17,15 L17,17 L18,17 L18,19 L19,19 L19,21 L20,21 L20,23 L21,23 L21,26 L22,26 L22,28 L23,28 L23,30 L24,30 L24,32 L25,32 L25,34 L26,34 L26,37 L27,37 L27,39 L28,39 L28,41 L29,41 L29,43 L30,43 L30,45 L31,45 L31,48 L32,48 L32,50 L33,50 L33,52 L34,52 L34,54 L35,54 L35,56 L36,56 L36,59 L37,59 L37,61 L38,61 L38,63 L39,63 L39,65 L28,65 L28,63 L27,63 L27,61 L26,61 L26,58 L25,58 L25,56 L24,56 L24,54 L23,54 L23,51 L22,51 L22,49 L-11,49 L-11,50 L-12,50 L-12,52 L-13,52 L-13,54 L-14,54 L-14,56 L-15,56 L-15,59 L-16,59 L-16,61 L-17,61 L-17,63 L-18,63 L-18,65 L-29,65 L-29,64 L-28,64 L-28,61 L-27,61 L-27,59 L-26,59 L-26,57 L-25,57 L-25,55 L-24,55 L-24,53 L-23,53 L-23,50 L-22,50 L-22,48 L-21,48 L-21,46 L-20,46 L-20,44 L-19,44 L-19,42 L-18,42 L-18,39 L-17,39 L-17,37 L-16,37 L-16,35 L-15,35 L-15,33 L-14,33 L-14,31 L-13,31 L-13,28 L-12,28 L-12,26 L-11,26 L-11,24 L-10,24 L-10,22 L-9,22 L-9,20 L-8,20 L-8,17 L-7,17 L-7,15 L-6,15 L-6,13 L-5,13 L-5,11 L-4,11 L-4,8 L-3,8 L-3,6 L-2,6 L-2,4 L-1,4 L-1,2 L0,2 Z M4,13 L4,15 L3,15 L3,18 L2,18 L2,20 L1,20 L1,22 L0,22 L0,25 L-1,25 L-1,27 L-2,27 L-2,29 L-3,29 L-3,31 L-4,31 L-4,34 L-5,34 L-5,36 L-6,36 L-6,38 L-7,38 L-7,40 L-8,40 L-8,41 L18,41 L18,40 L17,40 L17,38 L16,38 L16,36 L15,36 L15,33 L14,33 L14,31 L13,31 L13,29 L12,29 L12,26 L11,26 L11,24 L10,24 L10,22 L9,22 L9,20 L8,20 L8,17 L7,17 L7,15 L6,15 L6,13 Z " fill="#616160" transform="translate(253,26)"/>
<path d="M0,0 L10,0 L10,41 L11,41 L11,45 L12,45 L12,48 L13,48 L13,50 L14,50 L14,51 L15,51 L15,52 L16,52 L16,53 L17,53 L17,54 L19,54 L19,55 L22,55 L22,56 L33,56 L33,55 L36,55 L36,54 L38,54 L38,53 L39,53 L39,52 L40,52 L40,51 L41,51 L41,50 L42,50 L42,48 L43,48 L43,46 L44,46 L44,42 L45,42 L45,0 L55,0 L55,43 L54,43 L54,48 L53,48 L53,51 L52,51 L52,53 L51,53 L51,55 L50,55 L50,56 L49,56 L49,57 L48,57 L48,58 L47,58 L47,59 L46,59 L46,60 L45,60 L45,61 L43,61 L43,62 L42,62 L42,63 L39,63 L39,64 L36,64 L36,65 L19,65 L19,64 L16,64 L16,63 L13,63 L13,62 L12,62 L12,61 L10,61 L10,60 L9,60 L9,59 L8,59 L8,58 L7,58 L7,57 L6,57 L6,56 L5,56 L5,55 L4,55 L4,53 L3,53 L3,51 L2,51 L2,48 L1,48 L1,43 L0,43 Z " fill="#616160" transform="translate(320,109)"/>
<path d="M0,0 L10,0 L10,43 L11,43 L11,46 L12,46 L12,49 L13,49 L13,50 L14,50 L14,51 L15,51 L15,52 L16,52 L16,53 L17,53 L17,54 L19,54 L19,55 L22,55 L22,56 L33,56 L33,55 L35,55 L35,54 L37,54 L37,53 L39,53 L39,52 L40,52 L40,51 L41,51 L41,49 L42,49 L42,47 L43,47 L43,45 L44,45 L44,40 L45,40 L45,0 L54,0 L54,46 L53,46 L53,50 L52,50 L52,52 L51,52 L51,54 L50,54 L50,56 L49,56 L49,57 L48,57 L48,58 L47,58 L47,59 L46,59 L46,60 L45,60 L45,61 L43,61 L43,62 L41,62 L41,63 L39,63 L39,64 L35,64 L35,65 L19,65 L19,64 L15,64 L15,63 L13,63 L13,62 L11,62 L11,61 L10,61 L10,60 L8,60 L8,59 L7,59 L7,58 L6,58 L6,57 L5,57 L5,55 L4,55 L4,54 L3,54 L3,52 L2,52 L2,49 L1,49 L1,45 L0,45 Z " fill="#616160" transform="translate(443,109)"/>
<path d="M0,0 L54,0 L54,9 L32,9 L32,65 L22,65 L22,9 L0,9 Z " fill="#616160" transform="translate(382,109)"/>
<path d="M0,0 L54,0 L54,9 L32,9 L32,65 L22,65 L22,9 L0,9 Z " fill="#616160" transform="translate(356,26)"/>
<path d="M0,0 L1,0 L1,5 L0,5 L0,10 L-1,10 L-1,14 L-2,14 L-2,17 L-3,17 L-3,20 L-4,20 L-4,22 L-5,22 L-5,25 L-6,25 L-6,27 L-7,27 L-7,29 L-8,29 L-8,31 L-9,31 L-9,33 L-10,33 L-10,34 L-11,34 L-11,36 L-12,36 L-12,38 L-13,38 L-13,39 L-14,39 L-14,41 L-15,41 L-15,42 L-16,42 L-16,43 L-17,43 L-17,45 L-18,45 L-18,46 L-19,46 L-19,47 L-20,47 L-20,48 L-21,48 L-21,49 L-22,49 L-22,51 L-23,51 L-23,52 L-24,52 L-24,53 L-25,53 L-25,54 L-27,54 L-27,52 L-28,52 L-28,51 L-29,51 L-29,49 L-30,49 L-30,48 L-31,48 L-31,47 L-32,47 L-32,45 L-33,45 L-33,44 L-34,44 L-34,43 L-35,43 L-35,41 L-36,41 L-36,40 L-37,40 L-37,39 L-38,39 L-38,37 L-39,37 L-39,36 L-40,36 L-40,35 L-41,35 L-41,33 L-42,33 L-42,32 L-43,32 L-43,31 L-42,31 L-42,30 L-41,30 L-41,29 L-40,29 L-40,28 L-39,28 L-39,27 L-37,27 L-37,26 L-36,26 L-36,25 L-35,25 L-35,24 L-34,24 L-34,23 L-32,23 L-32,22 L-31,22 L-31,21 L-30,21 L-30,20 L-28,20 L-28,19 L-27,19 L-27,18 L-26,18 L-26,17 L-24,17 L-24,16 L-23,16 L-23,15 L-21,15 L-21,14 L-20,14 L-20,13 L-19,13 L-19,12 L-17,12 L-17,11 L-16,11 L-16,10 L-14,10 L-14,9 L-13,9 L-13,8 L-11,8 L-11,7 L-10,7 L-10,6 L-8,6 L-8,5 L-7,5 L-7,4 L-5,4 L-5,3 L-3,3 L-3,2 L-2,2 L-2,1 L0,1 Z " fill="#1B883F" transform="translate(182,210)"/>
<path d="M0,0 L10,0 L10,56 L45,56 L45,65 L0,65 Z " fill="#616160" transform="translate(580,109)"/>
</svg>
