<svg xmlns="http://www.w3.org/2000/svg" width="128" height="128" viewBox="0 0 128 128">
<g>
<path d="M 64.56 84.06 L 59.89 79.32 L 66.69 73.78 C75.32,66.76 85.23,60.39 95.75,55.11 L 104.00 50.98 L 104.00 65.82 L 95.42 70.63 C90.70,73.28 82.88,78.45 78.04,82.13 L 69.24 88.81 ZM 77.04 97.05 L 71.88 91.09 L 77.99 86.30 C83.96,81.60 101.76,70.16 103.25,70.05 C103.66,70.02 104.00,74.26 104.00,79.46 L 104.00 88.93 L 97.75 93.13 C94.31,95.44 89.86,98.60 87.86,100.16 C85.85,101.72 83.76,103.00 83.21,103.00 C82.65,103.00 79.88,100.32 77.04,97.05 ZM 91.39 114.87 C90.81,114.12 89.12,111.87 87.65,109.88 L 84.97 106.27 L 90.23 102.30 C93.13,100.11 97.46,97.10 99.85,95.59 L 104.19 92.85 L 103.52 96.18 C102.58,100.84 98.60,108.88 95.26,112.87 C92.99,115.58 92.23,115.97 91.39,114.87 Z" fill="rgba(27,136,63,1)"/>
<path d="M 73.02 117.75 C65.46,107.73 44.38,86.91 33.25,78.50 L 24.00 71.50 L 24.00 64.23 L 24.00 56.95 L 26.75 58.67 C44.38,69.71 68.81,91.97 81.82,108.87 C89.80,119.24 89.82,119.52 82.86,123.07 C80.78,124.13 78.94,125.00 78.78,125.00 C78.61,125.00 76.02,121.74 73.02,117.75 ZM 61.56 125.45 C58.80,121.24 37.29,99.44 30.30,93.76 L 24.00 88.65 L 24.00 82.29 C24.00,79.15 23.94,77.33 24.67,76.91 C25.68,76.34 28.21,78.44 34.50,83.47 C49.22,95.24 76.25,124.24 74.24,126.10 C73.84,126.48 71.21,127.10 68.41,127.47 C63.65,128.10 63.21,127.97 61.56,125.45 ZM 49.78 125.06 C43.82,122.73 36.04,117.05 32.56,112.49 C29.63,108.65 25.60,100.16 24.57,95.65 L 23.91 92.80 L 27.21 95.09 C31.47,98.06 58.00,124.68 58.00,126.00 C58.00,127.47 55.11,127.15 49.78,125.06 Z" fill="rgba(97,147,49,1)"/>
<path d="M 49.79 70.08 C45.55,66.46 37.99,60.80 32.99,57.50 L 23.91 51.50 L 24.22 41.00 C24.51,31.65 24.89,29.76 27.73,23.72 C39.66,-1.64 72.63,-7.52 92.33,12.20 C100.19,20.08 103.33,27.25 103.82,38.44 L 104.21 47.50 L 95.92 51.50 C85.30,56.62 72.27,64.75 64.00,71.42 L 57.50 76.66 ZM 35.77 45.03 C42.20,50.09 52.61,45.70 53.61,37.50 C54.80,27.86 44.80,21.77 36.30,26.96 C29.94,30.83 29.67,40.23 35.77,45.03 Z" fill="rgba(231,128,15,1)"/>
<path d="M 35.77 45.03 C29.67,40.23 29.94,30.83 36.30,26.96 C44.80,21.77 54.80,27.86 53.61,37.50 C52.61,45.70 42.20,50.09 35.77,45.03 Z" fill="rgba(253,248,244,1)"/>
</g>
</svg>